<?xml version="1.0" encoding="UTF-8" standalone="no"?><!DOCTYPE svg PUBLIC "-//W3C//DTD SVG 1.1//EN" "http://www.w3.org/Graphics/SVG/1.1/DTD/svg11.dtd"><svg width="100%" height="100%" viewBox="0 0 150 150" version="1.1" xmlns="http://www.w3.org/2000/svg" xmlns:xlink="http://www.w3.org/1999/xlink" xml:space="preserve" xmlns:serif="http://www.serif.com/" style="fill-rule:evenodd;clip-rule:evenodd;stroke-linejoin:round;stroke-miterlimit:2;"><path id="Home" d="M115.527,35.111l0,-1.068c0,-5.015 3.852,-9.08 8.678,-9.08c4.793,0 8.679,4.014 8.679,9.08l0,17.144l14.137,13.094c4.958,4.593 3.587,8.316 -3.067,8.316l-11.07,0l0,71.104c0,3.479 -2.635,6.299 -6.059,6.299l-103.594,0c-3.346,0 -6.059,-2.807 -6.059,-6.299l0,-71.104l-11.126,0c-6.652,0 -8.027,-3.721 -3.066,-8.316l67.55,-62.566c2.469,-2.287 6.472,-2.286 8.94,0l36.057,33.396Zm-23.142,52.37l0,43.763l23.142,0l0,-43.763l-23.142,0Z" style="fill:#499272;"/></svg>