<?xml version="1.0" encoding="UTF-8" standalone="no"?><!DOCTYPE svg PUBLIC "-//W3C//DTD SVG 1.1//EN" "http://www.w3.org/Graphics/SVG/1.1/DTD/svg11.dtd"><svg width="100%" height="100%" viewBox="0 0 150 150" version="1.1" xmlns="http://www.w3.org/2000/svg" xmlns:xlink="http://www.w3.org/1999/xlink" xml:space="preserve" xmlns:serif="http://www.serif.com/" style="fill-rule:evenodd;clip-rule:evenodd;stroke-linejoin:round;stroke-miterlimit:2;"><path id="Info" d="M75,0c-41.4,0 -75,33.6 -75,75c0,41.4 33.6,75 75,75c41.4,0 75,-33.6 75,-75c0,-41.4 -33.6,-75 -75,-75Zm0,6c38.1,0 69,30.9 69,69c0,38.1 -30.9,69 -69,69c-38.1,0 -69,-30.9 -69,-69c0,-38.1 30.9,-69 69,-69Zm6,51l0,48l6,0l0,6l-24,0l0,-6l6,0l0,-42l-6,0l0,-6l18,0Zm-6,-19.2c3.643,0 6.6,2.957 6.6,6.6c0,3.643 -2.957,6.6 -6.6,6.6c-3.643,0 -6.6,-2.957 -6.6,-6.6c0,-3.643 2.957,-6.6 6.6,-6.6Z" style="fill:#499272;"/></svg>