<?xml version="1.0" encoding="UTF-8" standalone="no"?><!DOCTYPE svg PUBLIC "-//W3C//DTD SVG 1.1//EN" "http://www.w3.org/Graphics/SVG/1.1/DTD/svg11.dtd"><svg width="100%" height="100%" viewBox="0 0 150 150" version="1.1" xmlns="http://www.w3.org/2000/svg" xmlns:xlink="http://www.w3.org/1999/xlink" xml:space="preserve" xmlns:serif="http://www.serif.com/" style="fill-rule:evenodd;clip-rule:evenodd;stroke-linejoin:round;stroke-miterlimit:2;"><path id="Globe-Earth" serif:id="Globe Earth" d="M8.303,69.396c0.935,-13.338 5.874,-25.864 14.348,-36.383c5.469,2.338 11.302,4.316 17.388,5.877c-2.799,9.608 -4.393,19.859 -4.746,30.506l-26.99,0Zm62.031,43.474l0,26.404c-7.674,-2.541 -14.812,-11.256 -19.923,-24.362c6.222,-1.137 12.908,-1.816 19.923,-2.042Zm-16.635,23.671c-9.474,-3.15 -18.117,-8.372 -25.338,-15.322c4.363,-1.706 9.108,-3.209 14.159,-4.474c3.011,7.931 6.822,14.662 11.179,19.796Zm-10.356,-57.937l26.991,0l0,26.242c-7.715,0.243 -15.265,1.079 -22.492,2.483c-2.593,-8.889 -4.134,-18.758 -4.499,-28.725Zm26.991,-35.45l0,26.242l-26.991,0c0.365,-9.973 1.906,-19.836 4.499,-28.719c7.262,1.404 14.812,2.239 22.492,2.477Zm-41.973,-16.373c7.226,-6.95 15.87,-12.172 25.338,-15.316c-4.357,5.123 -8.162,11.859 -11.179,19.79c-5.045,-1.265 -9.796,-2.768 -14.159,-4.474Zm22.05,6.307c5.111,-13.118 12.255,-21.826 19.923,-24.351l0,26.399c-7.021,-0.232 -13.707,-0.917 -19.923,-2.048Zm-10.372,76.022c-6.075,1.567 -11.913,3.539 -17.388,5.877c-8.474,-10.507 -13.413,-23.039 -14.348,-36.383l26.99,0c0.353,10.641 1.947,20.886 4.746,30.506Zm101.658,-30.535c-0.941,13.367 -5.874,25.905 -14.348,36.412c-5.48,-2.338 -11.319,-4.31 -17.388,-5.871c2.793,-9.608 4.387,-19.86 4.746,-30.541l26.99,0Zm-62.031,-43.439l0,-26.399c7.674,2.525 14.812,11.239 19.923,24.351c-6.216,1.131 -12.902,1.816 -19.923,2.048Zm27.814,-3.881c-3.011,-7.931 -6.822,-14.667 -11.185,-19.79c9.468,3.144 18.118,8.366 25.339,15.316c-4.363,1.706 -9.109,3.209 -14.154,4.474Zm-0.829,38.141l-26.985,0l0,-26.242c7.703,-0.243 15.253,-1.079 22.486,-2.477c2.594,8.871 4.14,18.74 4.499,28.719Zm8.05,0c-0.353,-10.641 -1.947,-20.886 -4.746,-30.5c6.081,-1.567 11.914,-3.539 17.394,-5.883c8.474,10.513 13.407,23.039 14.342,36.383l-26.99,0Zm-35.035,35.45l0,-26.271l26.985,0c-0.359,10.002 -1.905,19.877 -4.499,28.748c-7.233,-1.404 -14.783,-2.239 -22.486,-2.477Zm41.973,16.373c-7.221,6.95 -15.87,12.172 -25.344,15.322c4.363,-5.134 8.174,-11.865 11.185,-19.796c5.057,1.271 9.802,2.768 14.159,4.474Zm-22.056,-6.307c-5.105,13.106 -12.243,21.815 -19.917,24.362l0,-26.404c6.991,0.226 13.672,0.905 19.917,2.042Zm-24.586,-114.912c-41.35,0 -74.997,33.198 -74.997,74.003c0,40.799 33.647,73.997 74.997,73.997c41.356,0 75.003,-33.198 75.003,-73.997c0,-40.805 -33.647,-74.003 -75.003,-74.003Z" style="fill:#499272;"/></svg>